<mxfile host="app.diagrams.net" modified="2023-09-03T08:24:39.726Z" agent="Mozilla/5.0 (Macintosh; Intel Mac OS X 10_15_7) AppleWebKit/537.36 (KHTML, like Gecko) Chrome/116.0.0.0 Safari/537.36" etag="iYRy0PTcJUAt9VDJn81n" version="21.6.8" type="device">
  <diagram name="第 1 页" id="hQxF5Y9lW3uYFQSw0eeb">
    <mxGraphModel dx="1363" dy="710" grid="1" gridSize="10" guides="1" tooltips="1" connect="1" arrows="1" fold="1" page="1" pageScale="1" pageWidth="827" pageHeight="1169" math="0" shadow="0">
      <root>
        <mxCell id="0" />
        <mxCell id="1" parent="0" />
        <mxCell id="s6X88WVTEcWIvkcHEwyb-10" value="" style="rounded=0;whiteSpace=wrap;html=1;movable=1;resizable=1;rotatable=1;deletable=1;editable=1;locked=0;connectable=1;" parent="1" vertex="1">
          <mxGeometry x="197.1" y="470" width="380" height="100" as="geometry" />
        </mxCell>
        <mxCell id="s6X88WVTEcWIvkcHEwyb-27" style="edgeStyle=orthogonalEdgeStyle;rounded=0;orthogonalLoop=1;jettySize=auto;html=1;entryX=0.5;entryY=0;entryDx=0;entryDy=0;" parent="1" source="s6X88WVTEcWIvkcHEwyb-1" target="s6X88WVTEcWIvkcHEwyb-3" edge="1">
          <mxGeometry relative="1" as="geometry" />
        </mxCell>
        <mxCell id="s6X88WVTEcWIvkcHEwyb-1" value="Write API" style="rounded=0;whiteSpace=wrap;html=1;" parent="1" vertex="1">
          <mxGeometry x="227.1" y="290" width="120" height="50" as="geometry" />
        </mxCell>
        <mxCell id="s6X88WVTEcWIvkcHEwyb-29" style="edgeStyle=orthogonalEdgeStyle;rounded=0;orthogonalLoop=1;jettySize=auto;html=1;exitX=0.5;exitY=1;exitDx=0;exitDy=0;entryX=0.5;entryY=0;entryDx=0;entryDy=0;" parent="1" source="s6X88WVTEcWIvkcHEwyb-2" target="s6X88WVTEcWIvkcHEwyb-4" edge="1">
          <mxGeometry relative="1" as="geometry" />
        </mxCell>
        <mxCell id="s6X88WVTEcWIvkcHEwyb-2" value="Read API" style="rounded=0;whiteSpace=wrap;html=1;" parent="1" vertex="1">
          <mxGeometry x="422.1" y="290" width="120" height="50" as="geometry" />
        </mxCell>
        <mxCell id="BqfFAfFfVszblxANfPb_-12" style="edgeStyle=orthogonalEdgeStyle;rounded=0;orthogonalLoop=1;jettySize=auto;html=1;entryX=0.237;entryY=0;entryDx=0;entryDy=0;entryPerimeter=0;" parent="1" source="s6X88WVTEcWIvkcHEwyb-3" target="s6X88WVTEcWIvkcHEwyb-10" edge="1">
          <mxGeometry relative="1" as="geometry" />
        </mxCell>
        <mxCell id="BqfFAfFfVszblxANfPb_-16" style="edgeStyle=orthogonalEdgeStyle;rounded=0;orthogonalLoop=1;jettySize=auto;html=1;entryX=0.5;entryY=0;entryDx=0;entryDy=0;" parent="1" source="s6X88WVTEcWIvkcHEwyb-3" target="s6X88WVTEcWIvkcHEwyb-43" edge="1">
          <mxGeometry relative="1" as="geometry" />
        </mxCell>
        <mxCell id="s6X88WVTEcWIvkcHEwyb-3" value="Write Service" style="rounded=0;whiteSpace=wrap;html=1;" parent="1" vertex="1">
          <mxGeometry x="227.1" y="380" width="120" height="60" as="geometry" />
        </mxCell>
        <mxCell id="s6X88WVTEcWIvkcHEwyb-4" value="Read Service" style="rounded=0;whiteSpace=wrap;html=1;" parent="1" vertex="1">
          <mxGeometry x="422.1" y="380" width="120" height="60" as="geometry" />
        </mxCell>
        <mxCell id="s6X88WVTEcWIvkcHEwyb-11" value="Redis Cache" style="shape=cylinder3;whiteSpace=wrap;html=1;boundedLbl=1;backgroundOutline=1;size=15;" parent="1" vertex="1">
          <mxGeometry x="457.1" y="630" width="50" height="70" as="geometry" />
        </mxCell>
        <mxCell id="s6X88WVTEcWIvkcHEwyb-12" value="MySql" style="shape=cylinder3;whiteSpace=wrap;html=1;boundedLbl=1;backgroundOutline=1;size=15;" parent="1" vertex="1">
          <mxGeometry x="264.6" y="630" width="50" height="70" as="geometry" />
        </mxCell>
        <mxCell id="s6X88WVTEcWIvkcHEwyb-59" style="edgeStyle=orthogonalEdgeStyle;rounded=0;orthogonalLoop=1;jettySize=auto;html=1;entryX=0;entryY=0.25;entryDx=0;entryDy=0;" parent="1" source="s6X88WVTEcWIvkcHEwyb-5" target="s6X88WVTEcWIvkcHEwyb-7" edge="1">
          <mxGeometry relative="1" as="geometry" />
        </mxCell>
        <mxCell id="s6X88WVTEcWIvkcHEwyb-5" value="Article Service" style="rounded=0;whiteSpace=wrap;html=1;" parent="1" vertex="1">
          <mxGeometry x="217.1" y="490" width="100" height="40" as="geometry" />
        </mxCell>
        <mxCell id="s6X88WVTEcWIvkcHEwyb-61" style="edgeStyle=orthogonalEdgeStyle;rounded=0;orthogonalLoop=1;jettySize=auto;html=1;entryX=0;entryY=0.25;entryDx=0;entryDy=0;" parent="1" source="s6X88WVTEcWIvkcHEwyb-7" target="s6X88WVTEcWIvkcHEwyb-9" edge="1">
          <mxGeometry relative="1" as="geometry" />
        </mxCell>
        <mxCell id="s6X88WVTEcWIvkcHEwyb-7" value="Content Service" style="rounded=0;whiteSpace=wrap;html=1;" parent="1" vertex="1">
          <mxGeometry x="337.1" y="500" width="100" height="40" as="geometry" />
        </mxCell>
        <mxCell id="BqfFAfFfVszblxANfPb_-3" style="edgeStyle=orthogonalEdgeStyle;rounded=0;orthogonalLoop=1;jettySize=auto;html=1;entryX=0;entryY=0.5;entryDx=0;entryDy=0;" parent="1" source="s6X88WVTEcWIvkcHEwyb-9" target="BqfFAfFfVszblxANfPb_-2" edge="1">
          <mxGeometry relative="1" as="geometry" />
        </mxCell>
        <mxCell id="s6X88WVTEcWIvkcHEwyb-9" value="Like Service" style="rounded=0;whiteSpace=wrap;html=1;" parent="1" vertex="1">
          <mxGeometry x="457.1" y="510" width="100" height="40" as="geometry" />
        </mxCell>
        <mxCell id="BqfFAfFfVszblxANfPb_-7" style="edgeStyle=orthogonalEdgeStyle;rounded=0;orthogonalLoop=1;jettySize=auto;html=1;exitX=0.5;exitY=1;exitDx=0;exitDy=0;entryX=0.5;entryY=1;entryDx=0;entryDy=0;entryPerimeter=0;" parent="1" source="s6X88WVTEcWIvkcHEwyb-31" target="s6X88WVTEcWIvkcHEwyb-12" edge="1">
          <mxGeometry relative="1" as="geometry" />
        </mxCell>
        <mxCell id="s6X88WVTEcWIvkcHEwyb-31" value="Schedule Sync Service" style="rounded=0;whiteSpace=wrap;html=1;" parent="1" vertex="1">
          <mxGeometry x="730" y="505" width="90" height="50" as="geometry" />
        </mxCell>
        <mxCell id="s6X88WVTEcWIvkcHEwyb-38" style="edgeStyle=orthogonalEdgeStyle;rounded=0;orthogonalLoop=1;jettySize=auto;html=1;entryX=1;entryY=0.25;entryDx=0;entryDy=0;exitX=0.5;exitY=1;exitDx=0;exitDy=0;" parent="1" source="s6X88WVTEcWIvkcHEwyb-37" target="s6X88WVTEcWIvkcHEwyb-10" edge="1">
          <mxGeometry relative="1" as="geometry" />
        </mxCell>
        <mxCell id="s6X88WVTEcWIvkcHEwyb-37" value="User Service" style="rounded=0;whiteSpace=wrap;html=1;" parent="1" vertex="1">
          <mxGeometry x="610" y="380" width="120" height="60" as="geometry" />
        </mxCell>
        <mxCell id="s6X88WVTEcWIvkcHEwyb-42" value="Image&lt;br&gt;Store" style="shape=cylinder3;whiteSpace=wrap;html=1;boundedLbl=1;backgroundOutline=1;size=15;" parent="1" vertex="1">
          <mxGeometry x="97.1" y="660" width="50" height="70" as="geometry" />
        </mxCell>
        <mxCell id="s6X88WVTEcWIvkcHEwyb-46" style="edgeStyle=orthogonalEdgeStyle;rounded=0;orthogonalLoop=1;jettySize=auto;html=1;entryX=0.5;entryY=0;entryDx=0;entryDy=0;entryPerimeter=0;" parent="1" source="s6X88WVTEcWIvkcHEwyb-43" target="s6X88WVTEcWIvkcHEwyb-42" edge="1">
          <mxGeometry relative="1" as="geometry" />
        </mxCell>
        <mxCell id="s6X88WVTEcWIvkcHEwyb-43" value="Imgur Service" style="rounded=0;whiteSpace=wrap;html=1;" parent="1" vertex="1">
          <mxGeometry x="77.1" y="490" width="90" height="45" as="geometry" />
        </mxCell>
        <mxCell id="s6X88WVTEcWIvkcHEwyb-48" value="" style="edgeStyle=isometricEdgeStyle;endArrow=none;html=1;rounded=0;dashed=1;" parent="1" edge="1">
          <mxGeometry width="50" height="100" relative="1" as="geometry">
            <mxPoint x="22.9" y="600.14" as="sourcePoint" />
            <mxPoint x="197.1" y="580.14" as="targetPoint" />
          </mxGeometry>
        </mxCell>
        <mxCell id="s6X88WVTEcWIvkcHEwyb-50" style="edgeStyle=orthogonalEdgeStyle;rounded=0;orthogonalLoop=1;jettySize=auto;html=1;entryX=0.5;entryY=0;entryDx=0;entryDy=0;" parent="1" source="s6X88WVTEcWIvkcHEwyb-49" target="s6X88WVTEcWIvkcHEwyb-37" edge="1">
          <mxGeometry relative="1" as="geometry" />
        </mxCell>
        <mxCell id="s6X88WVTEcWIvkcHEwyb-49" value="Authorization API" style="rounded=0;whiteSpace=wrap;html=1;" parent="1" vertex="1">
          <mxGeometry x="610" y="290" width="120" height="50" as="geometry" />
        </mxCell>
        <mxCell id="s6X88WVTEcWIvkcHEwyb-54" value="Authorization Filter" style="rounded=0;whiteSpace=wrap;html=1;" parent="1" vertex="1">
          <mxGeometry x="210" y="220" width="530" height="30" as="geometry" />
        </mxCell>
        <mxCell id="s6X88WVTEcWIvkcHEwyb-58" value="" style="endArrow=classic;html=1;rounded=0;exitX=0.5;exitY=1;exitDx=0;exitDy=0;entryX=0.75;entryY=0;entryDx=0;entryDy=0;" parent="1" source="s6X88WVTEcWIvkcHEwyb-4" target="s6X88WVTEcWIvkcHEwyb-10" edge="1">
          <mxGeometry width="50" height="50" relative="1" as="geometry">
            <mxPoint x="417.1" y="370" as="sourcePoint" />
            <mxPoint x="467.1" y="320" as="targetPoint" />
          </mxGeometry>
        </mxCell>
        <mxCell id="BqfFAfFfVszblxANfPb_-1" value="" style="endArrow=classic;html=1;rounded=0;exitX=1;exitY=0.5;exitDx=0;exitDy=0;exitPerimeter=0;entryX=0;entryY=0.5;entryDx=0;entryDy=0;entryPerimeter=0;" parent="1" source="s6X88WVTEcWIvkcHEwyb-12" target="s6X88WVTEcWIvkcHEwyb-11" edge="1">
          <mxGeometry width="50" height="50" relative="1" as="geometry">
            <mxPoint x="402.5" y="600" as="sourcePoint" />
            <mxPoint x="452.5" y="550" as="targetPoint" />
          </mxGeometry>
        </mxCell>
        <mxCell id="BqfFAfFfVszblxANfPb_-8" style="edgeStyle=orthogonalEdgeStyle;rounded=0;orthogonalLoop=1;jettySize=auto;html=1;entryX=0;entryY=0.5;entryDx=0;entryDy=0;dashed=1;" parent="1" source="BqfFAfFfVszblxANfPb_-2" target="s6X88WVTEcWIvkcHEwyb-31" edge="1">
          <mxGeometry relative="1" as="geometry" />
        </mxCell>
        <mxCell id="BqfFAfFfVszblxANfPb_-2" value="Redis Queue" style="rounded=0;whiteSpace=wrap;html=1;" parent="1" vertex="1">
          <mxGeometry x="610" y="510" width="80" height="40" as="geometry" />
        </mxCell>
        <mxCell id="BqfFAfFfVszblxANfPb_-19" style="edgeStyle=orthogonalEdgeStyle;rounded=0;orthogonalLoop=1;jettySize=auto;html=1;entryX=0;entryY=0;entryDx=0;entryDy=45;entryPerimeter=0;" parent="1" source="BqfFAfFfVszblxANfPb_-15" target="s6X88WVTEcWIvkcHEwyb-42" edge="1">
          <mxGeometry relative="1" as="geometry">
            <Array as="points">
              <mxPoint x="60" y="110" />
              <mxPoint x="60" y="705" />
            </Array>
          </mxGeometry>
        </mxCell>
        <mxCell id="BqfFAfFfVszblxANfPb_-21" style="edgeStyle=orthogonalEdgeStyle;rounded=0;orthogonalLoop=1;jettySize=auto;html=1;entryX=0.472;entryY=0;entryDx=0;entryDy=0;entryPerimeter=0;" parent="1" source="BqfFAfFfVszblxANfPb_-15" target="s6X88WVTEcWIvkcHEwyb-54" edge="1">
          <mxGeometry relative="1" as="geometry" />
        </mxCell>
        <mxCell id="BqfFAfFfVszblxANfPb_-15" value="Client" style="rounded=0;whiteSpace=wrap;html=1;" parent="1" vertex="1">
          <mxGeometry x="380" y="70" width="160" height="60" as="geometry" />
        </mxCell>
        <mxCell id="BqfFAfFfVszblxANfPb_-18" value="" style="edgeStyle=isometricEdgeStyle;endArrow=none;html=1;rounded=0;dashed=1;" parent="1" edge="1">
          <mxGeometry width="50" height="100" relative="1" as="geometry">
            <mxPoint x="22.9" y="615.14" as="sourcePoint" />
            <mxPoint x="197.10000000000028" y="595.14" as="targetPoint" />
          </mxGeometry>
        </mxCell>
        <mxCell id="BqfFAfFfVszblxANfPb_-20" value="" style="endArrow=classic;html=1;rounded=0;entryX=0.5;entryY=0;entryDx=0;entryDy=0;entryPerimeter=0;exitX=0.243;exitY=0.995;exitDx=0;exitDy=0;exitPerimeter=0;" parent="1" source="s6X88WVTEcWIvkcHEwyb-10" target="s6X88WVTEcWIvkcHEwyb-12" edge="1">
          <mxGeometry width="50" height="50" relative="1" as="geometry">
            <mxPoint x="360" y="670" as="sourcePoint" />
            <mxPoint x="410" y="620" as="targetPoint" />
          </mxGeometry>
        </mxCell>
        <mxCell id="BqfFAfFfVszblxANfPb_-22" value="" style="endArrow=classic;html=1;rounded=0;entryX=0.5;entryY=0;entryDx=0;entryDy=0;exitX=0.145;exitY=1;exitDx=0;exitDy=0;exitPerimeter=0;" parent="1" source="s6X88WVTEcWIvkcHEwyb-54" target="s6X88WVTEcWIvkcHEwyb-1" edge="1">
          <mxGeometry width="50" height="50" relative="1" as="geometry">
            <mxPoint x="300" y="360" as="sourcePoint" />
            <mxPoint x="350" y="310" as="targetPoint" />
          </mxGeometry>
        </mxCell>
        <mxCell id="BqfFAfFfVszblxANfPb_-23" value="" style="endArrow=classic;html=1;rounded=0;entryX=0.5;entryY=0;entryDx=0;entryDy=0;exitX=0.513;exitY=1;exitDx=0;exitDy=0;exitPerimeter=0;" parent="1" source="s6X88WVTEcWIvkcHEwyb-54" target="s6X88WVTEcWIvkcHEwyb-2" edge="1">
          <mxGeometry width="50" height="50" relative="1" as="geometry">
            <mxPoint x="410" y="360" as="sourcePoint" />
            <mxPoint x="460" y="310" as="targetPoint" />
          </mxGeometry>
        </mxCell>
        <mxCell id="BqfFAfFfVszblxANfPb_-24" value="" style="endArrow=classic;html=1;rounded=0;entryX=0.5;entryY=0;entryDx=0;entryDy=0;exitX=0.868;exitY=1;exitDx=0;exitDy=0;exitPerimeter=0;" parent="1" source="s6X88WVTEcWIvkcHEwyb-54" target="s6X88WVTEcWIvkcHEwyb-49" edge="1">
          <mxGeometry width="50" height="50" relative="1" as="geometry">
            <mxPoint x="700" y="270" as="sourcePoint" />
            <mxPoint x="630" y="310" as="targetPoint" />
          </mxGeometry>
        </mxCell>
        <mxCell id="BHgDWWZzkFvsaBcSHKD_-1" value="" style="endArrow=classic;startArrow=classic;html=1;rounded=0;entryX=0.5;entryY=0;entryDx=0;entryDy=0;entryPerimeter=0;exitX=0.75;exitY=1;exitDx=0;exitDy=0;" edge="1" parent="1" source="s6X88WVTEcWIvkcHEwyb-10" target="s6X88WVTEcWIvkcHEwyb-11">
          <mxGeometry width="50" height="50" relative="1" as="geometry">
            <mxPoint x="370" y="630" as="sourcePoint" />
            <mxPoint x="420" y="580" as="targetPoint" />
          </mxGeometry>
        </mxCell>
      </root>
    </mxGraphModel>
  </diagram>
</mxfile>
